Coordinates

Units are S.I. units (second, meters, Newtons, ...)
If the header above contains a line with 'inDegrees', this indicates whether rotational values are in degrees (yes) or radians (no).

inDegrees=no
nColumns=21
nRows=15
DataType=double
version=3
OpenSimVersion=4.6-2026-03-31-d6972f9e6
endheader
time	/jointset/ground_pelvis/pelvis_tilt/value	/jointset/ground_pelvis/pelvis_list/value	/jointset/ground_pelvis/pelvis_rotation/value	/jointset/ground_pelvis/pelvis_tx/value	/jointset/ground_pelvis/pelvis_ty/value	/jointset/ground_pelvis/pelvis_tz/value	/jointset/hip_r/hip_flexion_r/value	/jointset/hip_r/hip_adduction_r/value	/jointset/hip_r/hip_rotation_r/value	/jointset/walker_knee_r/knee_angle_r/value	/jointset/patellofemoral_r/knee_angle_r_beta/value	/jointset/ankle_r/ankle_angle_r/value	/jointset/subtalar_r/subtalar_angle_r/value	/jointset/hip_l/hip_flexion_l/value	/jointset/hip_l/hip_adduction_l/value	/jointset/hip_l/hip_rotation_l/value	/jointset/walker_knee_l/knee_angle_l/value	/jointset/patellofemoral_l/knee_angle_l_beta/value	/jointset/ankle_l/ankle_angle_l/value	/jointset/subtalar_l/subtalar_angle_l/value
142.496	0.03590408960604523	-0.113957780436318	1.451339482279195	0.8709624496075737	0.9983565820423683	-1.241995168381494	0.4879589781190112	0.09543794282758601	0.1214188395427222	0.4517648388123119	0.4517648393671171	0.0205633545286498	-0.165845441590016	-0.2539353035463652	0.03488002279816955	0.01588699848552437	0.2434171489530585	0.243417149711043	-0.3248811035898447	-0.2111638512088335
142.5	0.03658148013749491	-0.1175489611581645	1.448953748043223	0.8712882878681287	0.9988150386717548	-1.242722045694428	0.4855017070893586	0.09834239569664957	0.1243186710747478	0.4135785623781624	0.413578562996511	0.02690176154187282	-0.1476732839563919	-0.2537966098406537	0.03361988975900377	0.01111082370410898	0.2515976520563092	0.2515976528677797	-0.3410531552714577	-0.2047777477204203
142.504	0.03656319388780661	-0.1208131554329093	1.446776480155967	0.8715793156737189	0.9991129017834576	-1.243375748598798	0.4829922785415091	0.1002654507549764	0.1274501255616039	0.3777506186244918	0.3777506192933927	0.03349619289995546	-0.1287906620353576	-0.252636064347401	0.03307875647710898	0.00709429365025832	0.2624051837410106	0.2624051845805367	-0.3556765158231756	-0.1985735836027711
142.508	0.03591700875543358	-0.1237056104594314	1.444815539757722	0.8718346690218978	0.9992515546553487	-1.243953074800896	0.4804038686790142	0.1012781069610466	0.1307891987026085	0.3444348874494341	0.3444348881543936	0.04020089991444817	-0.1095425740752732	-0.2505170696815525	0.03319770053983349	0.003926542914774933	0.2758213061582354	0.2758213069947496	-0.3687508581069087	-0.1926434886959104
142.512	0.03472383143810166	-0.1261821656360038	1.443081193787646	0.8720537663053192	0.9992333894059647	-1.244452117679046	0.4776982044137065	0.1014659638791733	0.1343083188241838	0.3137566759444793	0.3137566766697237	0.04686928609686525	-0.09028409764570788	-0.2475174699244451	0.03390324366162439	0.001667881368419024	0.2917966394925661	0.2917966402928523	-0.3802771824974329	-0.1870504982355108
142.516	0.03307472973283343	-0.1281997938311455	1.441584892809162	0.8722363911231384	0.9990617077827018	-1.244872222471264	0.4748280472804119	0.1009265677121981	0.1379764832684192	0.285813896859425	0.2858138975880536	0.0533603603265688	-0.07136920781283659	-0.2437279259191826	0.03510988768479079	0.0003467426532064412	0.310252243382141	0.3102522441147086	-0.3902580703741019	-0.1818298187624525
142.52	0.03106793674158951	-0.1297172813209909	1.440337834611676	0.8723827860885046	0.9987406025901691	-1.245213889341221	0.4717403204381284	0.09976683359201331	0.1417592231893076	0.2606792741903637	0.2606792749046575	0.05954519145253874	-0.05313975829237594	-0.2392496628638407	0.03672252507376036	-4.239524510241227e-05	0.3310820551033112	0.3310820557418727	-0.398698563620621	-0.1769916042803945
142.524	0.02880597710105131	-0.13069607546456	1.439349406401551	0.8724937494581028	0.998274820685472	-1.245478625265602	0.4683797704963154	0.09810066245382376	0.145618440720318	0.2384033832996685	0.2384033839818313	0.06531306908456053	-0.03591514371939034	-0.2341916381204564	0.03863860498888146	0.0004600608690853127	0.3541562666043747	0.3541562671302377	-0.4056076126080665	-0.1725250668763955
142.528	0.02639302487415995	-0.1311013142979386	1.438625593813925	0.8725707265055458	0.9976696091556829	-1.24566875012549	0.4646930090241389	0.09604682376313216	0.1495122187556511	0.2190182670752592	0.2190182677086818	0.07057707350083937	-0.01998310539441134	-0.228667218652973	0.04074999922332209	0.001779181860015237	0.3793254549994967	0.3793254554024589	-0.4109999783465257	-0.1684036442775564
142.532	0.0239325691066532	-0.1309030299818711	1.438167436503083	0.8726158886222625	0.9969305479770955	-1.2457871660283	0.4606327283943565	0.09372713844088687	0.1533947613306796	0.2025413115936733	0.2025413121645098	0.07527874437286262	-0.005592086628715722	-0.2227904991699519	0.04294456397525921	0.003807247260645655	0.406425230661985	0.4064252309397997	-0.4148984416586967	-0.164590881246355
142.536	0.02152543369906607	-0.1300774871194024	1.437969600119583	0.872632194460383	0.9960633750941779	-1.245837102590112	0.4561618413429799	0.09126496558395956	0.157216656696385	0.1889790344591707	0.1889790349577825	0.07939153925416272	0.007054514234366011	-0.2166724383937489	0.04510743372148998	0.006406839433786619	0.4352811279825907	0.4352811281395612	-0.4173361574032588	-0.1610466421339825
142.54	0.0192681682355094	-0.1286086038454112	1.438019132093103	0.8726234275693604	0.9950738109515725	-1.245821852893012	0.4512572947283016	0.08878396307175911	0.1609256156435814	0.1783304612037508	0.1783304616255693	0.08292282082585156	0.01780197457528726	-0.2104170004170709	0.04712210983401344	0.009415210286676787	0.4657134622429458	0.4657134622883765	-0.4183589505008031	-0.1577332305931426
142.544	0.01725180028728557	-0.1264894262067469	1.438294482098836	0.8725942032232206	0.9939673872909314	-1.245744514522571	0.4459133747800157	0.08640705817122786	0.1644677121094044	0.1705898397147144	0.1705898400602838	0.08591421147281587	0.02654577634205661	-0.2041174321029123	0.04887140964513362	0.01264975127337098	0.4975419335265473	0.4975419334735049	-0.4180272668161923	-0.1546209364320143
142.548	0.01556091742969924	-0.1237236443769352	1.438764876299581	0.8725499366387208	0.9927492832255496	-1.245607749941514	0.4401443839777666	0.08425554072660209	0.1677890384438643	0.165748516431268	0.1657485167054362	0.08844025982383051	0.03323125885678405	-0.1978527533771282	0.05023833757845618	0.01591433137208996	0.5305898214109325	0.5305898212753146	-0.4164174505793811	-0.1516925271867964
142.552	0.01427301427057177	-0.1203270808815742	1.439390103976899	0.8724967689046946	0.9914241768166199	-1.24541358182968	0.4339865303555706	0.08244817362772622	0.1708376848920901	0.1637958246116041	0.1637958248220014	0.09060544427708132	0.03785167904836505	-0.1916845930753482	0.05110696937441009	0.01900622120663304	0.5646876061794356	0.5646876059790684	-0.4136221145177434	-0.1489463307137383
